<svg width="236" height="68" viewBox="0 0 236 68" fill="none" xmlns="http://www.w3.org/2000/svg">
<path d="M5.06931 58.4907V67.218H4.01249V59.5987H3.96135L1.83067 61.0135V59.9396L4.01249 58.4907H5.06931Z" fill="white"/>
<path d="M29.6372 0H27.4419V56.2406H29.6372V0Z" fill="white"/>
<path d="M34.0279 0H31.8326V56.2406H34.0279V0Z" fill="white"/>
<path d="M2.19535 0H0V56.2406H2.19535V0Z" fill="white"/>
<path d="M6.58603 0H4.39069V56.2406H6.58603V0Z" fill="white"/>
<path d="M17.5628 0H8.78137V51.1278H17.5628V0Z" fill="white"/>
<path d="M24.1489 0H20.8558V51H24.1489V0Z" fill="white"/>
<path d="M40.614 0H38.4186V51.1278H40.614V0Z" fill="white"/>
<path d="M49.3954 0H45.0047V51.1278H49.3954V0Z" fill="white"/>
<path d="M64.7628 0H62.5674V51.1278H64.7628V0Z" fill="white"/>
<path d="M75.7396 0H69.1535V51.1278H75.7396V0Z" fill="white"/>
<path d="M80.1302 0H77.9349V51.1278H80.1302V0Z" fill="white"/>
<path d="M86.7163 0H82.3256V51.1278H86.7163V0Z" fill="white"/>
<path d="M95.4977 0H93.3024V51.1278H95.4977V0Z" fill="white"/>
<path d="M106.474 0H104.279V51.1278H106.474V0Z" fill="white"/>
<path d="M110.865 0H108.67V51.1278H110.865V0Z" fill="white"/>
<path d="M117.451 0H115.256V51.1278H117.451V0Z" fill="white"/>
<path d="M126.233 0H124.037V51.1278H126.233V0Z" fill="white"/>
<path d="M58.9086 67.218V66.451L61.7893 63.2976C62.1274 62.9282 62.4058 62.6072 62.6246 62.3345C62.8433 62.0589 63.0052 61.8004 63.1103 61.5589C63.2183 61.3146 63.2723 61.0589 63.2723 60.7919C63.2723 60.4851 63.1984 60.2194 63.0507 59.995C62.9058 59.7706 62.7069 59.5973 62.4541 59.4751C62.2013 59.353 61.9172 59.2919 61.6018 59.2919C61.2666 59.2919 60.974 59.3615 60.724 59.5007C60.4768 59.6371 60.2851 59.8288 60.1487 60.076C60.0152 60.3231 59.9484 60.6129 59.9484 60.9453H58.9427C58.9427 60.4339 59.0606 59.9851 59.2964 59.5987C59.5322 59.2123 59.8532 58.9112 60.2595 58.6953C60.6686 58.4794 61.1274 58.3714 61.6359 58.3714C62.1473 58.3714 62.6004 58.4794 62.9953 58.6953C63.3902 58.9112 63.6998 59.2024 63.9243 59.5689C64.1487 59.9353 64.2609 60.343 64.2609 60.7919C64.2609 61.1129 64.2027 61.4268 64.0862 61.7336C63.9726 62.0376 63.7737 62.3771 63.4896 62.7521C63.2084 63.1243 62.8177 63.5788 62.3177 64.1157L60.3575 66.2123V66.2805H64.4143V67.218H58.9086ZM69.1231 67.3373C68.5606 67.3373 68.0592 67.2407 67.6189 67.0476C67.1814 66.8544 66.8334 66.5859 66.5748 66.2422C66.3192 65.8956 66.1799 65.4936 66.1572 65.0362H67.2311C67.2538 65.3174 67.3504 65.5603 67.5209 65.7649C67.6913 65.9666 67.9143 66.1228 68.1899 66.2336C68.4655 66.3444 68.7709 66.3998 69.1061 66.3998C69.4811 66.3998 69.8135 66.3345 70.1032 66.2038C70.393 66.0731 70.6203 65.8913 70.7851 65.6584C70.9498 65.4254 71.0322 65.1555 71.0322 64.8487C71.0322 64.5277 70.9527 64.245 70.7936 64.0007C70.6345 63.7535 70.4015 63.5603 70.0947 63.4211C69.7879 63.2819 69.4129 63.2123 68.9697 63.2123H68.2709V62.2748H68.9697C69.3163 62.2748 69.6203 62.2123 69.8817 62.0873C70.1459 61.9623 70.3518 61.7862 70.4996 61.5589C70.6501 61.3317 70.7254 61.0646 70.7254 60.7578C70.7254 60.4623 70.6601 60.2052 70.5294 59.9865C70.3987 59.7677 70.214 59.5973 69.9754 59.4751C69.7396 59.353 69.4612 59.2919 69.1402 59.2919C68.839 59.2919 68.5549 59.3473 68.2879 59.4581C68.0237 59.566 67.8078 59.7237 67.6402 59.9311C67.4726 60.1356 67.3817 60.3828 67.3674 60.6726H66.3447C66.3618 60.2152 66.4996 59.8146 66.7581 59.4709C67.0166 59.1243 67.3547 58.8544 67.7723 58.6612C68.1927 58.468 68.6544 58.3714 69.1572 58.3714C69.697 58.3714 70.1601 58.4808 70.5464 58.6996C70.9328 58.9155 71.2297 59.201 71.4371 59.5561C71.6444 59.9112 71.7481 60.2947 71.7481 60.7067C71.7481 61.1981 71.6189 61.6172 71.3603 61.9638C71.1047 62.3103 70.7567 62.5504 70.3163 62.6839V62.7521C70.8674 62.843 71.2978 63.0774 71.6075 63.4552C71.9172 63.8302 72.072 64.2947 72.072 64.8487C72.072 65.3231 71.9427 65.7493 71.6842 66.1271C71.4285 66.5021 71.0791 66.7976 70.6359 67.0135C70.1927 67.2294 69.6885 67.3373 69.1231 67.3373ZM73.6103 65.4282V64.5589L77.4456 58.4907H78.0763V59.8373H77.6501L74.7524 64.4226V64.4907H79.9172V65.4282H73.6103ZM77.7183 67.218V65.164V64.7592V58.4907H78.724V67.218H77.7183ZM84.2414 67.3373C83.7414 67.3373 83.2911 67.2379 82.8905 67.039C82.49 66.8402 82.1689 66.5674 81.9275 66.2209C81.686 65.8743 81.5539 65.4794 81.5312 65.0362H82.5539C82.5937 65.4311 82.7726 65.7578 83.0908 66.0163C83.4118 66.272 83.7954 66.3998 84.2414 66.3998C84.5993 66.3998 84.9175 66.316 85.1959 66.1484C85.4772 65.9808 85.6973 65.7507 85.8564 65.4581C86.0184 65.1626 86.0993 64.8288 86.0993 64.4567C86.0993 64.076 86.0155 63.7365 85.8479 63.4382C85.6831 63.1371 85.4559 62.8998 85.1661 62.7265C84.8763 62.5532 84.5454 62.4652 84.1732 62.4623C83.9062 62.4595 83.632 62.5007 83.3508 62.5859C83.0695 62.6683 82.838 62.7748 82.6562 62.9055L81.6675 62.7862L82.1959 58.4907H86.73V59.4282H83.0823L82.7755 62.0021H82.8266C83.0056 61.8601 83.23 61.7422 83.4999 61.6484C83.7698 61.5547 84.051 61.5078 84.3437 61.5078C84.8777 61.5078 85.3536 61.6356 85.7712 61.8913C86.1917 62.1442 86.5212 62.4907 86.7598 62.9311C87.0013 63.3714 87.1221 63.8743 87.1221 64.4396C87.1221 64.9964 86.9971 65.4936 86.7471 65.9311C86.4999 66.3657 86.159 66.7095 85.7243 66.9623C85.2897 67.2123 84.7954 67.3373 84.2414 67.3373ZM91.7126 67.3373C91.3547 67.3317 90.9967 67.2635 90.6388 67.1328C90.2808 67.0021 89.9541 66.7819 89.6586 66.4723C89.3632 66.1598 89.126 65.7379 88.947 65.2067C88.768 64.6726 88.6785 64.0021 88.6785 63.1953C88.6785 62.4226 88.751 61.7379 88.8959 61.1413C89.0407 60.5419 89.251 60.0376 89.5265 59.6285C89.8021 59.2166 90.1345 58.9041 90.5237 58.691C90.9157 58.478 91.3575 58.3714 91.849 58.3714C92.3376 58.3714 92.7723 58.4694 93.153 58.6655C93.5365 58.8586 93.849 59.1285 94.0905 59.4751C94.3319 59.8217 94.4882 60.2209 94.5592 60.6726H93.5194C93.4228 60.2805 93.2353 59.9552 92.9569 59.6967C92.6785 59.4382 92.3092 59.3089 91.849 59.3089C91.1728 59.3089 90.6402 59.603 90.251 60.191C89.8646 60.7791 89.67 61.6044 89.6672 62.6669H89.7353C89.8944 62.4254 90.0834 62.2194 90.3021 62.049C90.5237 61.8757 90.768 61.7422 91.0351 61.6484C91.3021 61.5547 91.5848 61.5078 91.8831 61.5078C92.3831 61.5078 92.8405 61.6328 93.2552 61.8828C93.67 62.1299 94.0024 62.4723 94.2524 62.9098C94.5024 63.3444 94.6274 63.843 94.6274 64.4055C94.6274 64.9453 94.5067 65.4396 94.2652 65.8885C94.0237 66.3345 93.6842 66.6896 93.2467 66.9538C92.8121 67.2152 92.3007 67.343 91.7126 67.3373ZM91.7126 66.3998C92.0706 66.3998 92.3916 66.3103 92.6757 66.1314C92.9626 65.9524 93.1885 65.7123 93.3532 65.4112C93.5209 65.1101 93.6047 64.7748 93.6047 64.4055C93.6047 64.0447 93.5237 63.7166 93.3618 63.4211C93.2027 63.1228 92.9825 62.8856 92.7013 62.7095C92.4228 62.5334 92.1047 62.4453 91.7467 62.4453C91.4768 62.4453 91.2254 62.4993 90.9924 62.6072C90.7595 62.7123 90.5549 62.8572 90.3788 63.0419C90.2055 63.2265 90.0692 63.4382 89.9697 63.6768C89.8703 63.9126 89.8206 64.1612 89.8206 64.4226C89.8206 64.7692 89.9015 65.093 90.0635 65.3942C90.2282 65.6953 90.4527 65.9382 90.7368 66.1228C91.0237 66.3075 91.349 66.3998 91.7126 66.3998ZM96.5759 67.218L100.479 59.4964V59.4282H95.9793V58.4907H101.57V59.4794L97.6839 67.218H96.5759Z" fill="white"/>
<path d="M130.623 0H128.428V56.2406H130.623V0Z" fill="white"/>
<path d="M135.014 0H132.819V56.2406H135.014V0Z" fill="white"/>
<path d="M139.405 0H137.209V51.1278H139.405V0Z" fill="white"/>
<path d="M145.991 0H143.795V51.1278H145.991V0Z" fill="white"/>
<path d="M159.163 0H152.577V51.1278H159.163V0Z" fill="white"/>
<path d="M163.554 0H161.358V51.1278H163.554V0Z" fill="white"/>
<path d="M172.335 0H167.944V51.1278H172.335V0Z" fill="white"/>
<path d="M181.116 0H176.726V51.1278H181.116V0Z" fill="white"/>
<path d="M189.898 0H183.312V51.1278H189.898V0Z" fill="white"/>
<path d="M196.484 0H194.288V51.1278H196.484V0Z" fill="white"/>
<path d="M203.07 0H198.679V51.1278H203.07V0Z" fill="white"/>
<path d="M209.656 0H205.265V51.1278H209.656V0Z" fill="white"/>
<path d="M216.242 0H214.047V51.1278H216.242V0Z" fill="white"/>
<path d="M220.633 0H218.437V51.1278H220.633V0Z" fill="white"/>
<path d="M165.653 67.3373C165.068 67.3373 164.551 67.2336 164.102 67.0263C163.656 66.816 163.308 66.5277 163.058 66.1612C162.808 65.7919 162.684 65.3714 162.687 64.8998C162.684 64.5305 162.757 64.1896 162.905 63.8771C163.052 63.5618 163.254 63.299 163.51 63.0888C163.768 62.8757 164.057 62.7407 164.375 62.6839V62.6328C163.957 62.5248 163.625 62.2905 163.378 61.9297C163.13 61.566 163.008 61.1527 163.011 60.6896C163.008 60.2464 163.12 59.8501 163.348 59.5007C163.575 59.1513 163.887 58.8757 164.285 58.674C164.686 58.4723 165.142 58.3714 165.653 58.3714C166.159 58.3714 166.61 58.4723 167.008 58.674C167.406 58.8757 167.718 59.1513 167.946 59.5007C168.176 59.8501 168.292 60.2464 168.295 60.6896C168.292 61.1527 168.166 61.566 167.916 61.9297C167.669 62.2905 167.341 62.5248 166.932 62.6328V62.6839C167.247 62.7407 167.531 62.8757 167.784 63.0888C168.037 63.299 168.238 63.5618 168.389 63.8771C168.539 64.1896 168.616 64.5305 168.619 64.8998C168.616 65.3714 168.488 65.7919 168.235 66.1612C167.985 66.5277 167.637 66.816 167.191 67.0263C166.748 67.2336 166.235 67.3373 165.653 67.3373ZM165.653 66.3998C166.048 66.3998 166.389 66.3359 166.676 66.2081C166.963 66.0802 167.184 65.8998 167.341 65.6669C167.497 65.4339 167.576 65.1612 167.579 64.8487C167.576 64.5192 167.491 64.228 167.324 63.9751C167.156 63.7223 166.927 63.5234 166.637 63.3785C166.351 63.2336 166.022 63.1612 165.653 63.1612C165.281 63.1612 164.949 63.2336 164.656 63.3785C164.366 63.5234 164.137 63.7223 163.97 63.9751C163.805 64.228 163.724 64.5192 163.727 64.8487C163.724 65.1612 163.799 65.4339 163.953 65.6669C164.109 65.8998 164.332 66.0802 164.622 66.2081C164.912 66.3359 165.255 66.3998 165.653 66.3998ZM165.653 62.2578C165.966 62.2578 166.243 62.1953 166.484 62.0703C166.728 61.9453 166.92 61.7706 167.059 61.5461C167.199 61.3217 167.27 61.0589 167.272 60.7578C167.27 60.4623 167.2 60.2052 167.064 59.9865C166.927 59.7649 166.738 59.5944 166.497 59.4751C166.255 59.353 165.974 59.2919 165.653 59.2919C165.326 59.2919 165.041 59.353 164.797 59.4751C164.552 59.5944 164.363 59.7649 164.23 59.9865C164.096 60.2052 164.031 60.4623 164.034 60.7578C164.031 61.0589 164.098 61.3217 164.234 61.5461C164.373 61.7706 164.565 61.9453 164.809 62.0703C165.054 62.1953 165.335 62.2578 165.653 62.2578ZM173.031 58.3714C173.389 58.3743 173.747 58.4424 174.104 58.576C174.462 58.7095 174.789 58.9311 175.085 59.2407C175.38 59.5476 175.617 59.9666 175.796 60.4978C175.975 61.0291 176.065 61.6953 176.065 62.4964C176.065 63.272 175.991 63.9609 175.843 64.5632C175.698 65.1626 175.488 65.6683 175.212 66.0802C174.94 66.4922 174.607 66.8047 174.215 67.0177C173.826 67.2308 173.386 67.3373 172.894 67.3373C172.406 67.3373 171.97 67.2407 171.586 67.0476C171.205 66.8515 170.893 66.5802 170.648 66.2336C170.407 65.8842 170.252 65.4794 170.184 65.0192H171.224C171.318 65.4197 171.504 65.7507 171.782 66.0121C172.063 66.2706 172.434 66.3998 172.894 66.3998C173.568 66.3998 174.099 66.1058 174.488 65.5177C174.88 64.9297 175.076 64.0987 175.076 63.0248H175.008C174.849 63.2635 174.66 63.4694 174.441 63.6427C174.222 63.816 173.979 63.9496 173.712 64.0433C173.445 64.1371 173.161 64.1839 172.86 64.1839C172.36 64.1839 171.901 64.0603 171.484 63.8132C171.069 63.5632 170.737 63.2209 170.487 62.7862C170.239 62.3487 170.116 61.8487 170.116 61.2862C170.116 60.7521 170.235 60.2635 170.474 59.8203C170.715 59.3743 171.053 59.0192 171.488 58.7549C171.925 58.4907 172.44 58.3629 173.031 58.3714ZM173.031 59.3089C172.673 59.3089 172.35 59.3984 172.063 59.5774C171.779 59.7535 171.553 59.9922 171.386 60.2933C171.221 60.5916 171.139 60.9226 171.139 61.2862C171.139 61.6498 171.218 61.9808 171.377 62.2791C171.539 62.5746 171.759 62.8103 172.038 62.9865C172.319 63.1598 172.639 63.2464 172.997 63.2464C173.266 63.2464 173.518 63.1939 173.751 63.0888C173.984 62.9808 174.187 62.8345 174.36 62.6498C174.536 62.4623 174.674 62.2507 174.773 62.0149C174.873 61.7763 174.923 61.5277 174.923 61.2692C174.923 60.9282 174.84 60.6086 174.675 60.3103C174.514 60.0121 174.289 59.7706 174.002 59.5859C173.718 59.4013 173.394 59.3089 173.031 59.3089ZM180.809 58.4907V67.218H179.752V59.5987H179.701L177.57 61.0135V59.9396L179.752 58.4907H180.809ZM186.165 67.3373C185.523 67.3373 184.976 67.1626 184.525 66.8132C184.073 66.4609 183.728 65.951 183.489 65.2834C183.25 64.6129 183.131 63.8032 183.131 62.8544C183.131 61.9112 183.25 61.1058 183.489 60.4382C183.731 59.7677 184.077 59.2564 184.529 58.9041C184.983 58.549 185.529 58.3714 186.165 58.3714C186.802 58.3714 187.346 58.549 187.797 58.9041C188.252 59.2564 188.598 59.7677 188.837 60.4382C189.079 61.1058 189.199 61.9112 189.199 62.8544C189.199 63.8032 189.08 64.6129 188.841 65.2834C188.603 65.951 188.258 66.4609 187.806 66.8132C187.354 67.1626 186.807 67.3373 186.165 67.3373ZM186.165 66.3998C186.802 66.3998 187.296 66.093 187.648 65.4794C188 64.8657 188.177 63.9907 188.177 62.8544C188.177 62.0987 188.096 61.4552 187.934 60.924C187.775 60.3927 187.544 59.9879 187.243 59.7095C186.945 59.4311 186.586 59.2919 186.165 59.2919C185.535 59.2919 185.042 59.603 184.686 60.2251C184.331 60.8444 184.154 61.7209 184.154 62.8544C184.154 63.6101 184.233 64.2521 184.392 64.7805C184.552 65.3089 184.78 65.7109 185.079 65.9865C185.38 66.2621 185.742 66.3998 186.165 66.3998ZM190.819 67.218V66.451L193.699 63.2976C194.037 62.9282 194.316 62.6072 194.535 62.3345C194.753 62.0589 194.915 61.8004 195.02 61.5589C195.128 61.3146 195.182 61.0589 195.182 60.7919C195.182 60.4851 195.108 60.2194 194.961 59.995C194.816 59.7706 194.617 59.5973 194.364 59.4751C194.111 59.353 193.827 59.2919 193.512 59.2919C193.177 59.2919 192.884 59.3615 192.634 59.5007C192.387 59.6371 192.195 59.8288 192.059 60.076C191.925 60.3231 191.858 60.6129 191.858 60.9453H190.853C190.853 60.4339 190.971 59.9851 191.206 59.5987C191.442 59.2123 191.763 58.9112 192.169 58.6953C192.579 58.4794 193.037 58.3714 193.546 58.3714C194.057 58.3714 194.51 58.4794 194.905 58.6953C195.3 58.9112 195.61 59.2024 195.834 59.5689C196.059 59.9353 196.171 60.343 196.171 60.7919C196.171 61.1129 196.113 61.4268 195.996 61.7336C195.883 62.0376 195.684 62.3771 195.4 62.7521C195.118 63.1243 194.728 63.5788 194.228 64.1157L192.267 66.2123V66.2805H196.324V67.218H190.819ZM200.982 67.3373C200.624 67.3317 200.266 67.2635 199.908 67.1328C199.55 67.0021 199.223 66.7819 198.928 66.4723C198.633 66.1598 198.395 65.7379 198.216 65.2067C198.037 64.6726 197.948 64.0021 197.948 63.1953C197.948 62.4226 198.02 61.7379 198.165 61.1413C198.31 60.5419 198.52 60.0376 198.796 59.6285C199.071 59.2166 199.404 58.9041 199.793 58.691C200.185 58.478 200.627 58.3714 201.118 58.3714C201.607 58.3714 202.042 58.4694 202.422 58.6655C202.806 58.8586 203.118 59.1285 203.36 59.4751C203.601 59.8217 203.758 60.2209 203.829 60.6726H202.789C202.692 60.2805 202.505 59.9552 202.226 59.6967C201.948 59.4382 201.579 59.3089 201.118 59.3089C200.442 59.3089 199.91 59.603 199.52 60.191C199.134 60.7791 198.939 61.6044 198.936 62.6669H199.005C199.164 62.4254 199.353 62.2194 199.571 62.049C199.793 61.8757 200.037 61.7422 200.304 61.6484C200.571 61.5547 200.854 61.5078 201.152 61.5078C201.652 61.5078 202.11 61.6328 202.525 61.8828C202.939 62.1299 203.272 62.4723 203.522 62.9098C203.772 63.3444 203.897 63.843 203.897 64.4055C203.897 64.9453 203.776 65.4396 203.535 65.8885C203.293 66.3345 202.954 66.6896 202.516 66.9538C202.081 67.2152 201.57 67.343 200.982 67.3373ZM200.982 66.3998C201.34 66.3998 201.661 66.3103 201.945 66.1314C202.232 65.9524 202.458 65.7123 202.623 65.4112C202.79 65.1101 202.874 64.7748 202.874 64.4055C202.874 64.0447 202.793 63.7166 202.631 63.4211C202.472 63.1228 202.252 62.8856 201.971 62.7095C201.692 62.5334 201.374 62.4453 201.016 62.4453C200.746 62.4453 200.495 62.4993 200.262 62.6072C200.029 62.7123 199.824 62.8572 199.648 63.0419C199.475 63.2265 199.338 63.4382 199.239 63.6768C199.14 63.9126 199.09 64.1612 199.09 64.4226C199.09 64.7692 199.171 65.093 199.333 65.3942C199.498 65.6953 199.722 65.9382 200.006 66.1228C200.293 66.3075 200.618 66.3998 200.982 66.3998Z" fill="white"/>
<path d="M231.609 0H229.414V56.2406H231.609V0Z" fill="white"/>
<path d="M236 0H233.805V56.2406H236V0Z" fill="white"/>
</svg>
