<svg width="24" height="24" viewBox="0 0 24 24" fill="none" xmlns="http://www.w3.org/2000/svg">
<rect width="24" height="24" fill="#1E1E1E"/>
<g id="Select Ticket">
<path d="M-435 -187C-435 -246.647 -386.647 -295 -327 -295H1930C1989.65 -295 2038 -246.647 2038 -187V1946C2038 2005.65 1989.65 2054 1930 2054H-327C-386.647 2054 -435 2005.65 -435 1946V-187Z" fill="#202526"/>
<path d="M-327 -294H1930V-296H-327V-294ZM2037 -187V1946H2039V-187H2037ZM1930 2053H-327V2055H1930V2053ZM-434 1946V-187H-436V1946H-434ZM-327 2053C-386.094 2053 -434 2005.09 -434 1946H-436C-436 2006.2 -387.199 2055 -327 2055V2053ZM2037 1946C2037 2005.09 1989.09 2053 1930 2053V2055C1990.2 2055 2039 2006.2 2039 1946H2037ZM1930 -294C1989.09 -294 2037 -246.094 2037 -187H2039C2039 -247.199 1990.2 -296 1930 -296V-294ZM-327 -296C-387.199 -296 -436 -247.199 -436 -187H-434C-434 -246.095 -386.094 -294 -327 -294V-296Z" fill="white" fill-opacity="0.1"/>
<g id="Select Ticket_2">
<rect width="1440" height="1118" transform="translate(-144 -50)" fill="#02191D"/>
<g id="Multi Step Form">
<rect width="1440" height="1082" transform="translate(-144 -16)" fill="#02191D"/>
<rect width="1440" height="1082" transform="translate(-144 -16)" fill="url(#paint0_radial_0_1)"/>
</g>
<g id="Header">
<rect x="-23.5" y="-25.5" width="1199" height="75" rx="23.5" fill="#05252C" fill-opacity="0.4"/>
<rect x="-23.5" y="-25.5" width="1199" height="75" rx="23.5" stroke="#197686"/>
<g id="Frame 1618871078">
<g id="thumb">
<rect x="-7.5" y="-5.5" width="39" height="35" rx="11.5" fill="#052F35"/>
<rect x="-7.5" y="-5.5" width="39" height="35" rx="11.5" stroke="#0E464F"/>
<g id="hugeicons:ticket-01">
<path id="Vector" d="M9.00002 3.5V20.5M2.46402 9.344C2.21602 9.344 1.98902 9.142 2.00002 8.879C2.06702 7.337 2.25502 6.333 2.78002 5.539C3.07948 5.08653 3.45503 4.68933 3.89002 4.365C5.05502 3.5 6.70002 3.5 9.99202 3.5H14.006C17.298 3.5 18.943 3.5 20.11 4.365C20.541 4.685 20.917 5.082 21.219 5.539C21.744 6.333 21.932 7.337 21.999 8.879C22.01 9.142 21.783 9.344 21.534 9.344C20.148 9.344 19.024 10.533 19.024 12C19.024 13.467 20.148 14.656 21.534 14.656C21.783 14.656 22.01 14.858 21.999 15.122C21.932 16.663 21.744 17.667 21.219 18.462C20.9195 18.9141 20.5439 19.311 20.109 19.635C18.943 20.5 17.298 20.5 14.006 20.5H9.99302C6.70102 20.5 5.05602 20.5 3.88902 19.635C3.45438 19.3106 3.07918 18.9134 2.78002 18.461C2.25502 17.667 2.06702 16.663 2.00002 15.121C1.98902 14.858 2.21602 14.656 2.46402 14.656C3.85002 14.656 4.97402 13.467 4.97402 12C4.97402 10.533 3.85002 9.344 2.46402 9.344Z" stroke="white" stroke-width="1.5" stroke-linecap="round" stroke-linejoin="round"/>
</g>
</g>
</g>
</g>
</g>
</g>
<defs>
<radialGradient id="paint0_radial_0_1" cx="0" cy="0" r="1" gradientUnits="userSpaceOnUse" gradientTransform="translate(720 1056.64) rotate(-90) scale(353.975 756.277)">
<stop stop-color="#24A0B5" stop-opacity="0.2"/>
<stop offset="1" stop-color="#24A0B5" stop-opacity="0"/>
</radialGradient>
</defs>
</svg>
